<?xml version="1.0" encoding="utf-8"?>
<svg xmlns="http://www.w3.org/2000/svg" width="48" height="48" viewBox="0 0 48 48" fill="none">
<path d="M22.7365 7.32629L22.7365 14.9052H20.7155V7.32629H22.7365Z" fill="black"/>
<path d="M9.97782 9.94238L17.5568 17.5213L18.9859 16.0922L11.4069 8.51328L9.97782 9.94238Z" fill="black"/>
<path d="M33.6713 10.3758L26.5258 17.5213L25.0967 16.0922L32.2422 8.94672L33.6713 10.3758Z" fill="black"/>
<path d="M18.4499 24.82L8.84171 33.8526L7.4574 32.3801L17.0655 23.3475L18.4499 24.82Z" fill="black"/>
<path d="M22.7365 36.3789V26.2737H20.7155V36.3789H22.7365Z" fill="black"/>
<path d="M7.57859 21.2211H16.4207V19.2L7.57859 19.2L7.57859 21.2211Z" fill="black"/>
<path d="M34.1049 21.2211H27.7891V19.2H34.1049V21.2211Z" fill="black"/>
<path fill-rule="evenodd" clip-rule="evenodd" d="M31.8288 26.0765L24.7682 23.1157L27.2282 30.4035L35.6961 39.4068L40.2967 35.0797L31.8288 26.0765ZM28.1147 26.7106L30.651 27.7741L37.4398 34.9922L35.7836 36.5499L29.0022 29.3398L28.1147 26.7106Z" fill="black"/>
<path d="M25.2632 20.8421C25.2632 22.5862 23.8493 24 22.1053 24C20.3612 24 18.9474 22.5862 18.9474 20.8421C18.9474 19.098 20.3612 17.6842 22.1053 17.6842C23.8493 17.6842 25.2632 19.098 25.2632 20.8421Z" fill="#FF5757"/>
</svg>