<?xml version="1.0" encoding="utf-8"?>
<svg xmlns="http://www.w3.org/2000/svg" fill="none" height="48" viewBox="0 0 48 48" width="48">
<path clip-rule="evenodd" d="M36.6316 18.4421L40.4211 18.4422V37.3896H34.1585L35.1058 39.9158H32.9473L32 37.3896H17.264L16.3166 39.9159H14.1581L15.1049 37.3896H7.57898V18.4422L11.3685 18.4421V9.85254H36.6316V18.4421ZM34.6106 11.8736H13.3895V18.5999C14.9534 19.0666 16.0936 20.516 16.0936 22.2317V27.2843H31.9065V22.2317C31.9065 20.516 33.0466 19.0666 34.6106 18.5999V11.8736ZM14.0725 22.2317V29.3054H33.9275V22.2317C33.9275 21.255 34.7193 20.4633 35.6959 20.4633H38.4V35.3685H9.60003V20.4633H12.3041C13.2808 20.4633 14.0725 21.255 14.0725 22.2317Z" fill="black" fill-rule="evenodd"/>
<path d="M16.2054 21.9087C16.0455 21.5986 16.1673 21.2177 16.4773 21.0579L21.6802 18.3752C21.9903 18.2153 22.3712 18.3371 22.531 18.6471L25.1069 23.6429C25.2668 23.9529 25.145 24.3338 24.835 24.4937L19.632 27.1764C19.322 27.3362 18.9411 27.2145 18.7813 26.9044L16.2054 21.9087Z" fill="#FF5757"/>
</svg>