<?xml version="1.0" encoding="utf-8"?>
<svg xmlns="http://www.w3.org/2000/svg" width="48" height="48" viewBox="0 0 48 48" fill="none">
<path fill-rule="evenodd" clip-rule="evenodd" d="M26.158 9.67718C23.9324 9.4033 21.6646 9.41844 19.5168 9.74317C10.4865 11.1085 5.40085 18.4847 6.6182 26.5363C7.83555 34.5878 15.8603 40.6459 24.8907 39.2806C27.5932 38.872 28.9006 38.37 30.861 37.1877C32.7655 36.0391 33.9375 33.7471 32.4833 31.0534C32.205 30.5379 31.8365 30.0426 31.4752 29.5569C30.6396 28.4336 29.8423 27.3619 30.2877 26.2111C30.9256 24.5626 34.6375 23.6555 36.5475 23.3668L38.3875 23.2011C39.7999 23.0739 41.1153 21.848 40.9171 20.5371C40.2776 16.3081 36.8973 13.1671 32.5233 11.3357L31.4136 13.0314C31.7209 13.1532 32.0229 13.282 32.3189 13.4175C36.0289 15.1158 38.4539 17.6937 38.9426 20.7853C38.9301 20.8101 38.9019 20.8536 38.8415 20.9147C38.6759 21.0822 38.426 21.2004 38.2091 21.22L36.3094 21.391L36.2502 21.3999C35.2085 21.5574 33.6577 21.884 32.2402 22.4173C31.5327 22.6834 30.7876 23.0271 30.1396 23.4726C29.5154 23.9016 28.7974 24.5505 28.4326 25.4932C27.7445 27.2713 28.5537 28.8018 29.132 29.6929C29.374 30.0657 29.6585 30.4479 29.8984 30.7702C29.9554 30.8467 30.01 30.92 30.0608 30.9889C30.3536 31.3858 30.5737 31.7034 30.7329 31.9984C31.2252 32.9102 31.2041 33.5898 31.0436 34.0738C30.8687 34.6014 30.4536 35.1105 29.8337 35.4844C28.1059 36.5264 27.0481 36.9426 24.5933 37.3138C16.5945 38.5231 9.62999 33.1504 8.58501 26.2389C7.53433 19.2897 11.8538 12.9135 19.8142 11.71C21.347 11.4782 22.9496 11.4193 24.5483 11.5231L26.158 9.67718ZM38.9515 20.7613C38.9515 20.7613 38.9514 20.7651 38.9485 20.7725C38.9496 20.765 38.9515 20.7613 38.9515 20.7613Z" fill="black"/>
<path fill-rule="evenodd" clip-rule="evenodd" d="M27.0811 31.9041C27.3113 30.4391 25.8249 28.9887 23.7612 28.6645C21.6975 28.3403 19.838 29.2651 19.6079 30.7301C19.3777 32.1951 20.8641 33.6456 22.9278 33.9698C24.9915 34.294 26.851 33.3692 27.0811 31.9041ZM25.0658 31.1022C24.7522 30.7962 24.2082 30.4966 23.4911 30.3839C22.774 30.2713 22.1644 30.3897 21.772 30.5848C21.3754 30.7821 21.3318 30.9719 21.3273 31.0002C21.3229 31.0286 21.3062 31.2227 21.6232 31.5321C21.9368 31.8381 22.4808 32.1377 23.1979 32.2503C23.915 32.363 24.5247 32.2446 24.917 32.0495C25.3136 31.8522 25.3573 31.6624 25.3617 31.634C25.3662 31.6057 25.3829 31.4116 25.0658 31.1022Z" fill="black"/>
<path d="M22.1034 18.5581L23.7299 19.6728C23.7299 19.6728 23.5988 23.0877 22.2931 23.8402C20.9873 24.5928 19.1157 24.5209 19.1157 24.5209C19.1157 24.5209 18.4379 22.7748 18.7238 21.2952C19.0098 19.8155 22.1034 18.5581 22.1034 18.5581Z" fill="black"/>
<path d="M32.0234 5.8866L33.6013 7.089L25.9179 18.8294L22.7231 16.5514L32.0234 5.8866Z" fill="#FF5757"/>
</svg>