<?xml version="1.0" encoding="utf-8"?>
<svg xmlns="http://www.w3.org/2000/svg" fill="none" height="48" viewBox="0 0 48 48" width="48">
<path d="M25.8947 24.6316C25.8947 25.678 25.0464 26.5263 24 26.5263C22.9535 26.5263 22.1052 25.678 22.1052 24.6316C22.1052 23.5851 22.9535 22.7368 24 22.7368C25.0464 22.7368 25.8947 23.5851 25.8947 24.6316Z" fill="#FF5757"/>
<path d="M25.8947 30.9473C25.8947 31.9938 25.0464 32.8421 24 32.8421C22.9535 32.8421 22.1052 31.9938 22.1052 30.9473C22.1052 29.9009 22.9535 29.0526 24 29.0526C25.0464 29.0526 25.8947 29.9009 25.8947 30.9473Z" fill="#FF5757"/>
<path clip-rule="evenodd" d="M17.646 7.40594L23.9999 12.5151L30.3537 7.40594L34.3529 12.6316H39.7895L38.4292 38.6526H9.5709L8.21057 12.6316H13.6468L17.646 7.40594ZM13.8099 14.6526H10.3379L11.491 36.6316H36.5091L37.6622 14.6526H34.1899L28.6837 21.2141L23.9999 14.8352L19.3161 21.2141L13.8099 14.6526ZM17.9929 10.2782L15.5052 13.5288L19.21 17.9437L22.2972 13.7393L17.9929 10.2782ZM30.0069 10.2782L32.4946 13.5288L28.7897 17.9437L25.7026 13.7393L30.0069 10.2782Z" fill="black" fill-rule="evenodd"/>
</svg>