<?xml version="1.0" encoding="utf-8"?>
<svg xmlns="http://www.w3.org/2000/svg" width="48" height="48" viewBox="0 0 48 48" fill="none">
<path d="M30.5938 31.3263H34.3832V40.1684H30.5938V31.3263Z" fill="#FF5757"/>
<path d="M13.3895 31.3263H17.179V40.1684H13.3895V31.3263Z" fill="#FF5757"/>
<path fill-rule="evenodd" clip-rule="evenodd" d="M25.5155 15.8652C25.5155 11.8469 28.773 8.58942 32.7913 8.58942C36.8096 8.58942 40.0671 11.8469 40.0671 15.8652V18.2905C40.0671 22.0356 37.2375 25.1198 33.5996 25.5219V31.3263H31.5786V25.4656C28.1375 24.8883 25.5155 21.8956 25.5155 18.2905V15.8652ZM38.0461 15.8652V18.2905C38.0461 21.1926 35.6934 23.5452 32.7913 23.5452C29.8892 23.5452 27.5366 21.1926 27.5366 18.2905V15.8652C27.5366 12.9631 29.8892 10.6105 32.7913 10.6105C35.6934 10.6105 38.0461 12.9631 38.0461 15.8652Z" fill="black"/>
<path d="M10.4839 9.802V18.2904C10.4839 21.0809 12.7461 23.3431 15.5366 23.3431C18.3271 23.3431 20.5892 21.0809 20.5892 18.2904V9.802H22.6103V18.2904C22.6103 21.9236 19.8711 24.9171 16.3453 25.3184V31.3263H14.3242V25.2606C10.9952 24.6857 8.46289 21.7838 8.46289 18.2904V9.802H10.4839Z" fill="black"/>
<path d="M14.3242 9.802V18.2904H16.3453V9.802H14.3242Z" fill="black"/>
</svg>