<?xml version="1.0" encoding="utf-8"?>
<svg xmlns="http://www.w3.org/2000/svg" width="48" height="48" viewBox="0 0 48 48" fill="none">
<path fill-rule="evenodd" clip-rule="evenodd" d="M27.8639 12.6316H13.9612L7.57898 21.692L24.3854 40.8664L35.7792 27.8673C35.7455 27.8314 35.7136 27.792 35.6837 27.7491L35.6743 27.7353L34.4338 26.3361L26.5977 35.2763L31.5967 23.1358L29.7946 21.103H18.7735L16.1175 14.6526H29.5532L27.8639 12.6316ZM15.0097 14.6526L14.9912 14.6789L15.0549 14.6526H15.0097ZM16.5878 21.103H10.466L14.3294 15.6183L16.5878 21.103ZM11.5217 23.1241H17.42L22.646 35.8158L11.5217 23.1241ZM29.4159 23.1241H19.6057L24.5108 35.0364L29.4159 23.1241Z" fill="black"/>
<path d="M31.8316 20.0609L36.6262 14.6526L41.6842 20.0609L36.6262 25.4692L31.8316 20.0609Z" fill="#FF5757"/>
<path d="M29.8105 11.7837L32.2693 8.8421L34.8632 11.7837C34.8632 11.7837 32.2693 14.9515 32.2693 14.7253L29.8105 11.7837Z" fill="#FF5757"/>
</svg>