<svg width="27" height="24" viewBox="0 0 27 24" fill="none" xmlns="http://www.w3.org/2000/svg">
<path fill-rule="evenodd" clip-rule="evenodd" d="M21.5143 5.59901C22.5499 6.55301 23.0496 7.87781 23.0546 9.21271C23.0546 12.2784 20.6637 14.9386 18.5646 16.7142C17.2452 17.8303 15.792 18.8535 14.2432 19.6871L13.6939 20.001L13.1501 19.6922C12.0924 19.1296 11.1011 18.4649 10.1484 17.7626C8.91182 16.8509 7.47919 15.6347 6.34765 14.2095C5.22154 12.7912 4.32944 11.0846 4.32911 9.21381C4.3264 7.96261 4.75633 6.62441 5.86931 5.59891C7.92898 3.70141 11.2681 3.70141 13.3278 5.59891L13.6911 5.93361L14.0558 5.59891C16.0885 3.72671 19.4816 3.72631 21.5143 5.59901ZM13.6919 17.6506C14.4185 17.2206 15.7652 16.3671 17.0963 15.241C19.1354 13.5163 20.8827 11.3708 20.8838 9.21461C20.8798 8.36561 20.5968 7.58201 19.9793 7.01311C18.7814 5.90961 16.7868 5.91321 15.5894 7.01451L13.6881 8.75931L11.7928 7.01311C10.581 5.89671 8.61615 5.89671 7.4044 7.01311C5.5769 8.69681 6.82773 11.4267 8.09972 13.0287C9.07615 14.2585 10.3496 15.3494 11.5046 16.2009C12.2065 16.718 12.9365 17.2019 13.6919 17.6506Z" fill="black"/>
</svg>
