<?xml version="1.0" encoding="utf-8"?>
<svg xmlns="http://www.w3.org/2000/svg" width="48" height="48" viewBox="0 0 48 48" fill="none">
<path fill-rule="evenodd" clip-rule="evenodd" d="M36.3788 27.1579V7.55698L15.4104 12.6461V28.6539C13.8937 27.7992 11.8658 27.7061 10.0081 28.5724C7.13869 29.9104 5.76168 33.0304 6.93245 35.5412C8.10321 38.0519 11.3784 39.0025 14.2478 37.6645C17.0221 36.3708 18.4013 33.4113 17.4315 30.9473V14.2353L34.3578 10.1272V24.615C32.8286 23.6926 30.739 23.5693 28.8291 24.4599C25.9597 25.7979 24.5827 28.9179 25.7535 31.4286C26.9243 33.9393 30.1995 34.89 33.0689 33.552C35.7229 32.3144 37.1001 29.5523 36.3655 27.1579H36.3788ZM32.2147 31.7203C34.3099 30.7433 34.9083 28.7144 34.3128 27.4374C33.7173 26.1604 31.7784 25.3146 29.6833 26.2916C27.5881 27.2686 26.9897 29.2975 27.5852 30.5745C28.1807 31.8515 30.1195 32.6973 32.2147 31.7203ZM13.3937 35.8328C15.4888 34.8558 16.0872 32.8269 15.4917 31.5499C14.8963 30.2729 12.9574 29.4271 10.8622 30.4041C8.76704 31.3811 8.16867 33.41 8.76414 34.687C9.35962 35.964 11.2985 36.8098 13.3937 35.8328Z" fill="black"/>
<path d="M34.3577 15.2489L17.4314 19.3111V14.2353L34.3577 10.1273V15.2489Z" fill="#FF5757"/>
</svg>