<?xml version="1.0" encoding="utf-8"?>
<svg xmlns="http://www.w3.org/2000/svg" width="48" height="48" viewBox="0 0 48 48" fill="none">
<path fill-rule="evenodd" clip-rule="evenodd" d="M30.4769 20.1768L24.0305 27.5403L18.4337 22.6657L20.0929 20.7607L23.7895 23.9802L28.5761 18.5127L30.4769 20.1768Z" fill="#FF5757"/>
<path fill-rule="evenodd" clip-rule="evenodd" d="M30.98 11.45L29.9296 7.07361L17.89 7.07361L16.8396 11.45H13.8947C12.4995 11.45 11.3684 12.5811 11.3684 13.9763V34.1868C11.3684 35.5821 12.4995 36.7132 13.8947 36.7132H16.8462L17.8896 41.0606H29.9293L30.9727 36.7132H34.1053C35.5005 36.7132 36.6316 35.5821 36.6316 34.1868V13.9763C36.6316 12.5811 35.5005 11.45 34.1053 11.45H30.98ZM28.8711 11.3232L28.3363 9.09466L19.4834 9.09466L18.9485 11.3232L28.8711 11.3232ZM18.9481 36.811L19.483 39.0395H28.3359L28.8708 36.811H18.9481ZM13.8947 13.4711H34.1053C34.3843 13.4711 34.6105 13.6973 34.6105 13.9763V34.1868C34.6105 34.4659 34.3843 34.6921 34.1053 34.6921H13.8947C13.6157 34.6921 13.3895 34.4659 13.3895 34.1868V13.9763C13.3895 13.6973 13.6157 13.4711 13.8947 13.4711Z" fill="black"/>
</svg>