<svg width="133" height="23" viewBox="0 0 133 23" fill="none" xmlns="http://www.w3.org/2000/svg">
<path d="M10.6288 1.54557C11.0114 0.86693 11.9886 0.86693 12.3712 1.54557L14.9254 6.0773C15.0681 6.33047 15.3139 6.50905 15.5988 6.56653L20.698 7.5954C21.4617 7.74948 21.7636 8.67892 21.2364 9.25243L17.7158 13.0821C17.5191 13.296 17.4252 13.5849 17.4586 13.8736L18.0558 19.0413C18.1453 19.8151 17.3546 20.3895 16.6463 20.0653L11.9162 17.9005C11.6519 17.7795 11.3481 17.7795 11.0838 17.9005L6.35371 20.0653C5.64536 20.3895 4.85472 19.8151 4.94416 19.0413L5.54139 13.8736C5.57476 13.5849 5.48088 13.296 5.28419 13.0821L1.76358 9.25243C1.23635 8.67892 1.53835 7.74948 2.30198 7.5954L7.40122 6.56653C7.6861 6.50905 7.93188 6.33047 8.07458 6.0773L10.6288 1.54557Z" fill="#FFD233"/>
<path d="M38.6288 1.54557C39.0114 0.86693 39.9886 0.86693 40.3712 1.54557L42.9254 6.0773C43.0681 6.33047 43.3139 6.50905 43.5988 6.56653L48.698 7.5954C49.4617 7.74948 49.7636 8.67892 49.2364 9.25243L45.7158 13.0821C45.5191 13.296 45.4252 13.5849 45.4586 13.8736L46.0558 19.0413C46.1453 19.8151 45.3546 20.3895 44.6463 20.0653L39.9162 17.9005C39.6519 17.7795 39.3481 17.7795 39.0838 17.9005L34.3537 20.0653C33.6454 20.3895 32.8547 19.8151 32.9442 19.0413L33.5414 13.8736C33.5748 13.5849 33.4809 13.296 33.2842 13.0821L29.7636 9.25243C29.2364 8.67892 29.5383 7.74948 30.302 7.5954L35.4012 6.56653C35.6861 6.50905 35.9319 6.33047 36.0746 6.0773L38.6288 1.54557Z" fill="#FFD233"/>
<path d="M66.6288 1.54557C67.0114 0.86693 67.9886 0.86693 68.3712 1.54557L70.9254 6.0773C71.0681 6.33047 71.3139 6.50905 71.5988 6.56653L76.698 7.5954C77.4617 7.74948 77.7636 8.67892 77.2364 9.25243L73.7158 13.0821C73.5191 13.296 73.4252 13.5849 73.4586 13.8736L74.0558 19.0413C74.1453 19.8151 73.3546 20.3895 72.6463 20.0653L67.9162 17.9005C67.6519 17.7795 67.3481 17.7795 67.0838 17.9005L62.3537 20.0653C61.6454 20.3895 60.8547 19.8151 60.9442 19.0413L61.5414 13.8736C61.5748 13.5849 61.4809 13.296 61.2842 13.0821L57.7636 9.25243C57.2364 8.67892 57.5383 7.74948 58.302 7.5954L63.4012 6.56653C63.6861 6.50905 63.9319 6.33047 64.0746 6.0773L66.6288 1.54557Z" fill="#FFD233"/>
<path d="M94.6288 1.54557C95.0114 0.86693 95.9886 0.86693 96.3712 1.54557L98.9254 6.0773C99.0681 6.33047 99.3139 6.50905 99.5988 6.56653L104.698 7.5954C105.462 7.74948 105.764 8.67892 105.236 9.25243L101.716 13.0821C101.519 13.296 101.425 13.5849 101.459 13.8736L102.056 19.0413C102.145 19.8151 101.355 20.3895 100.646 20.0653L95.9162 17.9005C95.6519 17.7795 95.3481 17.7795 95.0838 17.9005L90.3537 20.0653C89.6454 20.3895 88.8547 19.8151 88.9442 19.0413L89.5414 13.8736C89.5748 13.5849 89.4809 13.296 89.2842 13.0821L85.7636 9.25243C85.2364 8.67892 85.5383 7.74948 86.302 7.5954L91.4012 6.56653C91.6861 6.50905 91.9319 6.33047 92.0746 6.0773L94.6288 1.54557Z" fill="#FFD233"/>
<path d="M120.629 1.54557C121.011 0.86693 121.989 0.86693 122.371 1.54557L124.925 6.0773C125.068 6.33047 125.314 6.50905 125.599 6.56653L130.698 7.5954C131.462 7.74948 131.764 8.67892 131.236 9.25243L127.716 13.0821C127.519 13.296 127.425 13.5849 127.459 13.8736L128.056 19.0413C128.145 19.8151 127.355 20.3895 126.646 20.0653L121.916 17.9005C121.652 17.7795 121.348 17.7795 121.084 17.9005L116.354 20.0653C115.645 20.3895 114.855 19.8151 114.944 19.0413L115.541 13.8736C115.575 13.5849 115.481 13.296 115.284 13.0821L111.764 9.25243C111.236 8.67892 111.538 7.74948 112.302 7.5954L117.401 6.56653C117.686 6.50905 117.932 6.33047 118.075 6.0773L120.629 1.54557Z" fill="url(#paint0_linear_217_1168)"/>
<defs>
<linearGradient id="paint0_linear_217_1168" x1="110" y1="11.5" x2="133" y2="11.5" gradientUnits="userSpaceOnUse">
<stop offset="0.648333" stop-color="#FFD233"/>
<stop offset="0.648433" stop-color="white"/>
</linearGradient>
</defs>
</svg>
